HIERARCHY
ROOT root
{
	OFFSET 0.000000 0.000000 0.000000
	CHANNELS 6 Xposition Yposition Zposition Zrotation Yrotation Xrotation
	JOINT lhip
	{
		OFFSET 0.058581 -0.082280 -0.017664
		CHANNELS 3 Zrotation Yrotation Xrotation
		JOINT lknee
		{
			OFFSET 0.043451 -0.386469 0.008037
			CHANNELS 3 Zrotation Yrotation Xrotation
			JOINT lankle
			{
				OFFSET -0.014790 -0.426874 -0.037428
				CHANNELS 3 Zrotation Yrotation Xrotation
				JOINT ltoe
				{
					OFFSET 0.041054 -0.060286 0.122042
					CHANNELS 3 Zrotation Yrotation Xrotation
					End Site
					{
						OFFSET 0.000000 0.000000 0.000000
					}
				}
			}
		}
	}
	JOINT rhip
	{
		OFFSET -0.060310 -0.090513 -0.013543
		CHANNELS 3 Zrotation Yrotation Xrotation
		JOINT rknee
		{
			OFFSET -0.043257 -0.383688 -0.004843
			CHANNELS 3 Zrotation Yrotation Xrotation
			JOINT rankle
			{
				OFFSET 0.019056 -0.420046 -0.034562
				CHANNELS 3 Zrotation Yrotation Xrotation
				JOINT rtoe
				{
					OFFSET -0.034840 -0.062106 0.130323
					CHANNELS 3 Zrotation Yrotation Xrotation
					End Site
					{
						OFFSET 0.000000 0.000000 0.000000
					}
				}
			}
		}
	}
	JOINT lowerback
	{
		OFFSET 0.004439 0.124404 -0.038385
		CHANNELS 3 Zrotation Yrotation Xrotation
		JOINT upperback
		{
			OFFSET 0.004488 0.137956 0.026820
			CHANNELS 3 Zrotation Yrotation Xrotation
			JOINT chest
			{
				OFFSET -0.002265 0.056032 0.002855
				CHANNELS 3 Zrotation Yrotation Xrotation
				JOINT lowerneck
				{
					OFFSET -0.013390 0.211636 -0.033468
					CHANNELS 3 Zrotation Yrotation Xrotation
					JOINT upperneck
					{
						OFFSET 0.010113 0.088937 0.050410
						CHANNELS 3 Zrotation Yrotation Xrotation
						End Site
						{
							OFFSET 0.000000 0.000000 0.000000
						}
					}
				}
				JOINT lclavicle
				{
					OFFSET 0.071702 0.114000 -0.018898
					CHANNELS 3 Zrotation Yrotation Xrotation
					JOINT lshoulder
					{
						OFFSET 0.122921 0.045205 -0.019046
						CHANNELS 3 Zrotation Yrotation Xrotation
						JOINT lelbow
						{
							OFFSET 0.255332 -0.015649 -0.022946
							CHANNELS 3 Zrotation Yrotation Xrotation
							JOINT lwrist
							{
								OFFSET 0.265709 0.012698 -0.007375
								CHANNELS 3 Zrotation Yrotation Xrotation
								End Site
								{
									OFFSET 0.000000 0.000000 0.000000
								}
							}
						}
					}
				}
				JOINT rclavicle
				{
					OFFSET -0.082954 0.112472 -0.023707
					CHANNELS 3 Zrotation Yrotation Xrotation
					JOINT rshoulder
					{
						OFFSET -0.113228 0.046853 -0.008472
						CHANNELS 3 Zrotation Yrotation Xrotation
						JOINT relbow
						{
							OFFSET -0.260127 -0.014369 -0.031269
							CHANNELS 3 Zrotation Yrotation Xrotation
							JOINT rwrist
							{
								OFFSET -0.269108 0.006794 -0.006027
								CHANNELS 3 Zrotation Yrotation Xrotation
								End Site
								{
									OFFSET 0.000000 0.000000 0.000000
								}
							}
						}
					}
				}
			}
		}
	}
}
MOTION
Frames: 8
Frame Time: 0.033333
-0.754270 -0.297289 0.981644 81.551669 -0.359620 87.043556 5.208432 2.383389 2.932718 -2.857858 -4.583903 10.866419 1.097746 13.538395 -19.418783 0.000000 -0.000000 0.000000 -0.031918 -0.485657 -9.368791 2.128388 -3.214579 26.248518 1.837243 -9.856834 -17.832940 0.000000 -0.000000 0.000000 -0.864017 -1.775600 7.869843 2.063972 -2.234303 1.319180 -0.689210 -2.351747 0.314409 2.259564 5.691371 -9.300867 -2.999995 -2.204121 10.698052 -25.583280 0.771101 2.901679 -38.839685 -5.668208 9.267981 5.277509 -47.195767 10.294821 -6.785761 -9.822965 -3.034172 29.027261 1.471535 0.910507 44.344977 2.376753 12.789655 -11.651015 34.286501 -1.131929 20.804449 10.493404 -7.021802 
-0.749966 -0.305972 0.980268 81.803146 -0.370554 86.544692 5.351278 2.041368 2.031915 -2.675543 -4.784619 14.631123 1.346295 13.524553 -19.115346 0.000000 -0.000000 0.000000 0.542075 -0.162291 -8.324745 2.063960 -3.518690 26.073624 1.261814 -10.569095 -18.306333 0.000000 -0.000000 0.000000 -0.831599 -1.506608 8.623505 1.931610 -1.676036 1.039727 -0.707239 -2.230796 0.141078 2.113913 5.678744 -9.322715 -3.097401 -2.128162 10.906221 -25.916267 0.851705 3.004635 -38.928916 -5.039733 9.157819 5.953741 -47.110632 10.139816 -7.667292 -10.072687 -3.372995 28.779805 1.687044 1.392454 44.481585 1.676588 12.614278 -12.062531 34.352972 -1.065658 21.222831 10.728547 -7.792044 
-0.745514 -0.314698 0.980273 81.975152 -0.495035 85.843129 5.559684 1.826330 0.971880 -2.697946 -4.199786 18.347936 1.149379 14.033035 -19.195719 0.000000 -0.000000 0.000000 1.015693 -0.744517 -6.928690 2.123249 -2.871816 25.833401 0.978186 -10.607496 -18.276738 0.000000 -0.000000 0.000000 -0.809787 -0.830897 9.258286 1.722065 -1.629104 1.373112 -0.873840 -1.791873 0.209555 1.913882 5.566673 -9.316730 -2.973722 -1.781199 10.655042 -26.178964 0.819908 2.712141 -38.882712 -4.843819 8.666430 6.243245 -46.937804 9.720356 -9.095346 -9.371570 -3.369983 28.800755 1.752604 1.344860 44.369110 1.474501 12.177634 -12.179436 34.197804 -1.223668 22.280859 10.686356 -7.835178 
-0.739352 -0.324662 0.981644 82.177615 -0.773963 85.264544 5.883885 1.019741 -1.128310 -3.490484 -3.160112 24.241193 -0.501251 14.135588 -18.562795 0.000000 -0.000000 0.000000 1.285632 -1.247933 -5.110123 2.263052 -2.670349 24.505648 0.489402 -10.518706 -18.256671 0.000000 -0.000000 0.000000 -0.765444 0.157556 9.901389 1.397925 -1.412271 1.024371 -1.027488 -1.528420 0.133660 1.659489 5.727980 -8.664964 -2.706859 -1.468449 10.997659 -26.628708 0.881987 2.617465 -38.802570 -4.260763 8.376299 6.490249 -46.125661 9.342450 -10.046901 -9.336423 -3.243806 28.704602 1.816329 1.706758 44.054305 1.020996 11.808322 -12.114402 33.992740 -0.848405 22.517183 10.443816 -8.212982 
-0.735952 -0.329806 0.982799 82.193592 -1.089418 85.020503 6.086260 0.332188 -2.884462 -4.166809 -2.060342 28.179597 -0.257468 14.375394 -17.460153 0.000000 -0.000000 0.000000 1.155236 -1.607864 -4.188279 2.332596 -2.668430 23.844265 0.213130 -10.115287 -18.304024 0.000000 -0.000000 0.000000 -0.852459 0.761261 10.142480 1.167982 -1.277447 1.118256 -1.184713 -1.300103 0.026136 1.589894 5.687404 -8.639510 -2.543449 -1.455447 11.309480 -26.802829 1.035420 2.563147 -38.766701 -3.832750 8.276509 6.872356 -46.116824 9.124871 -10.688924 -9.623006 -2.930666 28.616446 1.679044 1.765343 43.810099 0.934428 11.550913 -11.918596 34.174549 -0.548385 22.662050 10.016939 -8.311727 
-0.730576 -0.336077 0.984636 81.831317 -1.565032 84.716325 6.281698 -0.465622 -4.755936 -5.547441 -1.310546 32.538981 0.305617 14.474790 -15.715351 0.000000 -0.000000 0.000000 0.783231 -2.271902 -2.934242 2.713812 -2.025595 22.899370 -0.116431 -9.834791 -18.470561 0.000000 -0.000000 0.000000 -0.934325 1.786613 10.398339 0.818271 -0.842053 0.967803 -1.342030 -0.935154 0.057584 1.520098 5.571077 -8.732414 -2.271365 -1.156403 11.576404 -27.055379 1.219873 2.389659 -38.695723 -3.229144 8.355392 6.722261 -46.178588 8.993913 -8.931988 -9.133006 -2.976127 28.341325 1.557524 1.998678 43.262290 0.484447 11.131374 -11.538478 34.834158 -0.264401 22.494666 9.733494 -9.133153 
-0.723967 -0.341538 0.986106 81.371116 -1.910411 84.232781 6.522974 -0.726583 -6.044902 -6.718860 -0.931938 34.864907 -0.097668 13.508681 -16.438201 0.000000 -0.000000 0.000000 0.652915 -2.707886 -1.392840 2.650433 -1.570689 21.912580 -0.305850 -9.330036 -18.615215 0.000000 -0.000000 0.000000 -0.746790 2.680649 10.973938 0.411826 -0.324799 0.918006 -1.562830 -0.425111 -0.173300 1.304230 5.565787 -8.537832 -2.090509 -0.805354 11.696140 -27.380060 1.589729 2.079365 -38.523490 -2.590020 8.270271 6.336343 -46.468543 9.531778 -8.358366 -9.166187 -2.872162 27.976038 1.469241 2.209626 42.673014 0.166810 10.720496 -11.087579 35.255986 0.348176 23.450675 9.746140 -9.441966 
-0.717719 -0.346029 0.987386 80.988760 -2.552630 84.009678 6.298824 -1.003680 -7.309771 -7.229256 -0.369573 34.928028 -0.183709 12.838151 -17.098033 0.000000 -0.000000 0.000000 0.089771 -3.439321 -0.302462 2.541093 -0.880721 21.158700 -0.227375 -8.700544 -18.752828 0.000000 -0.000000 0.000000 -0.827277 3.558992 11.443962 -0.079562 0.032288 0.619806 -1.761963 0.102617 -0.004273 1.216685 5.442977 -8.677806 -2.012360 -0.721326 11.609868 -27.564553 2.056450 1.546026 -38.330775 -2.409134 8.272694 5.459360 -46.475610 9.934158 -5.708384 -10.538052 -2.581702 27.505620 1.494510 2.079260 42.225371 0.164025 10.650561 -10.790529 35.374316 0.266819 22.157194 9.895032 -9.460572 
